<svg viewBox="0 0 760 520" xmlns="http://www.w3.org/2000/svg" class="trip-map" role="img" aria-label="モックの旅程マップ: 15スポットを線でつないだサンプル地図">
<rect class="tm-sea" x="0" y="0" width="760" height="520"/>
<g class="tm-land">
  <path d="M158 92 C126 126 109 178 116 236 C124 310 166 390 246 430 C316 465 402 448 476 416 C556 381 626 321 644 238 C662 156 612 87 536 56 C456 24 350 31 268 52 C221 64 184 75 158 92Z"/>
  <path d="M520 102 C555 116 586 153 592 194 C599 242 569 289 525 312 C488 331 442 321 413 288 C383 254 375 205 393 164 C414 116 469 83 520 102Z" opacity=".45"/>
  <path d="M180 332 C214 315 252 316 279 341 C306 367 310 408 286 434 C257 466 207 457 181 428 C157 401 151 351 180 332Z" opacity=".55"/>
</g>
<g class="tm-routes">
  <path class="tm-route" data-day="1" d="M150 380 C184 356 202 328 228 302"/>
  <path class="tm-route" data-day="1" d="M228 302 C257 270 282 250 316 236"/>
  <path class="tm-route" data-day="1" d="M316 236 C344 224 366 220 392 206"/>
  <path class="tm-route" data-day="2" d="M392 206 C428 186 455 154 486 126"/>
  <path class="tm-route" data-day="2" d="M486 126 C525 135 552 158 574 190"/>
  <path class="tm-route" data-day="2" d="M574 190 C558 226 532 253 502 278"/>
  <path class="tm-route" data-day="3" d="M502 278 C468 304 427 314 386 308"/>
  <path class="tm-route" data-day="3" d="M386 308 C352 304 323 317 296 338"/>
  <path class="tm-route" data-day="3" d="M296 338 C272 356 247 367 214 366"/>
  <path class="tm-route" data-day="4" d="M214 366 C239 394 276 412 318 414"/>
  <path class="tm-route" data-day="4" d="M318 414 C367 415 413 398 454 374"/>
  <path class="tm-route" data-day="4" d="M454 374 C495 349 532 333 584 334"/>
  <path class="tm-route" data-day="5" d="M584 334 C544 366 506 394 458 416"/>
  <path class="tm-route" data-day="5" d="M458 416 C404 441 346 454 286 432"/>
</g>
<g class="tm-pins">
  <g class="tm-pin" data-day="1" transform="translate(150,380)"><circle class="tm-dot" r="5"/><text class="tm-label" x="9" y="4">出発地</text></g>
  <g class="tm-pin" data-day="1" transform="translate(228,302)"><circle class="tm-dot" r="5"/><text class="tm-label" x="9" y="4">海沿いの道の駅</text></g>
  <g class="tm-pin" data-day="1" transform="translate(316,236)"><circle class="tm-dot" r="5"/><text class="tm-label" x="9" y="4">丘の展望台</text></g>
  <g class="tm-pin" data-day="1" transform="translate(392,206)"><circle class="tm-dot" r="5"/><text class="tm-label" x="9" y="4">古い温泉街</text></g>
  <g class="tm-pin" data-day="2" transform="translate(486,126)"><circle class="tm-dot" r="5"/><text class="tm-label" x="9" y="4">港の朝市</text></g>
  <g class="tm-pin" data-day="2" transform="translate(574,190)"><circle class="tm-dot" r="5"/><text class="tm-label" x="-82" y="-10">灯台公園</text></g>
  <g class="tm-pin" data-day="2" transform="translate(502,278)"><circle class="tm-dot" r="5"/><text class="tm-label" x="9" y="4">岬のカフェ</text></g>
  <g class="tm-pin" data-day="3" transform="translate(386,308)"><circle class="tm-dot" r="5"/><text class="tm-label" x="9" y="4">山あいの駅</text></g>
  <g class="tm-pin" data-day="3" transform="translate(296,338)"><circle class="tm-dot" r="5"/><text class="tm-label" x="9" y="4">小さな湖</text></g>
  <g class="tm-pin" data-day="3" transform="translate(214,366)"><circle class="tm-dot" r="5"/><text class="tm-label" x="9" y="4">夕日の浜</text></g>
  <g class="tm-pin" data-day="4" transform="translate(318,414)"><circle class="tm-dot" r="5"/><text class="tm-label" x="9" y="4">峠の茶屋</text></g>
  <g class="tm-pin" data-day="4" transform="translate(454,374)"><circle class="tm-dot" r="5"/><text class="tm-label" x="9" y="4">ローカル食堂</text></g>
  <g class="tm-pin" data-day="4" transform="translate(584,334)"><circle class="tm-dot" r="5"/><text class="tm-label" x="-86" y="18">川辺の宿</text></g>
  <g class="tm-pin" data-day="5" transform="translate(458,416)"><circle class="tm-dot" r="5"/><text class="tm-label" x="9" y="4">帰り道のSA</text></g>
  <g class="tm-pin" data-day="5" transform="translate(286,432)"><circle class="tm-dot" r="5"/><text class="tm-label" x="9" y="4">到着地</text></g>
</g>
</svg>
